<?xml version="1.0" encoding="UTF-8"?>
<svg xmlns="http://www.w3.org/2000/svg" xmlns:xlink="http://www.w3.org/1999/xlink" width="100px" height="100px" viewBox="0 0 100 100" version="1.1">
<g id="surface1">
<path style=" stroke:none;fill-rule:evenodd;fill:rgb(0%,0%,0%);fill-opacity:1;" d="M 27.734375 53.390625 C 28.070312 53.121094 28.527344 52.964844 29.007812 52.964844 C 29.488281 52.964844 29.945312 53.121094 30.28125 53.390625 C 30.988281 53.960938 30.988281 54.875 30.28125 55.445312 L 27.226562 57.929688 L 30.28125 60.410156 C 30.988281 60.972656 30.988281 61.886719 30.28125 62.449219 C 29.574219 63.011719 28.429688 63.011719 27.722656 62.449219 L 24.667969 60.015625 L 21.613281 62.449219 C 21.277344 62.722656 20.820312 62.875 20.339844 62.875 C 19.859375 62.875 19.402344 62.722656 19.066406 62.449219 C 18.367188 61.878906 18.367188 60.964844 19.066406 60.394531 L 22.121094 57.914062 L 19.066406 55.429688 C 18.363281 54.867188 18.363281 53.957031 19.066406 53.390625 C 19.398438 53.121094 19.855469 52.96875 20.328125 52.96875 C 20.804688 52.96875 21.261719 53.121094 21.59375 53.390625 L 24.648438 55.828125 L 27.703125 53.390625 Z M 26.328125 17.992188 C 24.171875 17.957031 22.433594 16.566406 22.40625 14.84375 L 22.40625 13.78125 L 5.816406 13.78125 C 5.488281 13.792969 5.226562 14.007812 5.214844 14.269531 L 5.214844 95.183594 C 5.21875 95.449219 5.484375 95.660156 5.816406 95.664062 L 94.183594 95.664062 C 94.515625 95.660156 94.78125 95.449219 94.785156 95.183594 L 94.785156 14.269531 C 94.769531 14.007812 94.507812 13.800781 94.183594 13.789062 L 77.949219 13.789062 L 77.949219 14.851562 C 77.914062 16.578125 76.164062 17.972656 73.996094 17.992188 Z M 5.855469 99.859375 C 2.625 99.855469 0.00390625 97.769531 0 95.195312 L 0 14.269531 C 0.00390625 11.695312 2.625 9.605469 5.855469 9.601562 L 22.40625 9.601562 L 22.40625 8.613281 C 22.417969 6.871094 24.191406 5.460938 26.378906 5.457031 L 33.429688 5.457031 L 33.429688 3.628906 C 33.460938 1.714844 35.398438 0.171875 37.796875 0.140625 L 62.242188 0.140625 C 64.644531 0.171875 66.585938 1.714844 66.621094 3.628906 L 66.621094 5.464844 L 73.945312 5.464844 C 76.128906 5.472656 77.898438 6.882812 77.90625 8.621094 L 77.90625 9.609375 L 94.144531 9.609375 C 97.375 9.617188 99.996094 11.703125 100 14.277344 L 100 95.195312 C 99.996094 97.769531 97.375 99.855469 94.144531 99.859375 Z M 79.640625 80.519531 C 81.101562 80.519531 82.289062 79.578125 82.289062 78.410156 C 82.289062 77.246094 81.101562 76.300781 79.640625 76.300781 L 44.378906 76.300781 C 42.914062 76.300781 41.730469 77.246094 41.730469 78.410156 C 41.730469 79.578125 42.914062 80.519531 44.378906 80.519531 Z M 79.640625 39.945312 C 81.101562 39.945312 82.289062 39 82.289062 37.835938 C 82.289062 36.671875 81.101562 35.726562 79.640625 35.726562 L 44.378906 35.726562 C 42.914062 35.726562 41.730469 36.671875 41.730469 37.835938 C 41.730469 39 42.914062 39.945312 44.378906 39.945312 Z M 79.640625 59.941406 C 81.101562 59.941406 82.289062 58.996094 82.289062 57.832031 C 82.289062 56.664062 81.101562 55.722656 79.640625 55.722656 L 44.378906 55.722656 C 42.914062 55.722656 41.730469 56.664062 41.730469 57.832031 C 41.730469 58.996094 42.914062 59.941406 44.378906 59.941406 Z M 19.179688 78.296875 C 18.457031 77.4375 18.746094 76.273438 19.824219 75.695312 C 20.90625 75.121094 22.367188 75.351562 23.089844 76.210938 L 24.375 77.730469 L 29.464844 72.804688 C 30.289062 72.007812 31.765625 71.890625 32.765625 72.542969 C 33.769531 73.199219 33.914062 74.375 33.09375 75.171875 L 26.0625 81.988281 C 25.90625 82.152344 25.71875 82.292969 25.503906 82.410156 C 24.425781 82.984375 22.96875 82.757812 22.246094 81.902344 L 19.1875 78.296875 Z M 19.820312 37.257812 C 20.902344 36.683594 22.363281 36.914062 23.089844 37.769531 L 24.375 39.289062 L 29.464844 34.363281 C 30.289062 33.5625 31.765625 33.449219 32.765625 34.101562 C 33.769531 34.757812 33.914062 35.933594 33.09375 36.730469 L 26.0625 43.546875 C 25.894531 43.710938 25.691406 43.851562 25.464844 43.960938 C 24.386719 44.535156 22.929688 44.308594 22.203125 43.449219 L 19.148438 39.847656 C 18.429688 38.988281 18.714844 37.828125 19.789062 37.25 Z M 19.820312 37.257812 "/>
</g>
</svg>
