<?xml version="1.0" encoding="UTF-8"?>
<svg xmlns="http://www.w3.org/2000/svg" xmlns:xlink="http://www.w3.org/1999/xlink" width="100px" height="100px" viewBox="0 0 100 100" version="1.1">
<g id="surface1">
<path style=" stroke:none;fill-rule:nonzero;fill:rgb(0%,0%,0%);fill-opacity:1;" d="M 97.367188 66.152344 L 88.636719 66.152344 C 87.183594 66.152344 86.007812 67.328125 86.007812 68.78125 L 86.007812 89.621094 C 86.007812 91.074219 87.183594 92.253906 88.636719 92.253906 L 97.367188 92.253906 C 98.820312 92.253906 100 91.074219 100 89.621094 L 100 68.78125 C 100 67.328125 98.820312 66.152344 97.367188 66.152344 Z M 97.367188 66.152344 "/>
<path style=" stroke:none;fill-rule:nonzero;fill:rgb(0%,0%,0%);fill-opacity:1;" d="M 75.867188 56.144531 L 67.136719 56.144531 C 65.683594 56.144531 64.503906 57.324219 64.503906 58.777344 L 64.503906 89.621094 C 64.503906 91.074219 65.683594 92.253906 67.136719 92.253906 L 75.867188 92.253906 C 77.320312 92.253906 78.5 91.074219 78.5 89.621094 L 78.5 58.777344 C 78.5 57.324219 77.320312 56.144531 75.867188 56.144531 Z M 75.867188 56.144531 "/>
<path style=" stroke:none;fill-rule:nonzero;fill:rgb(0%,0%,0%);fill-opacity:1;" d="M 32.863281 66.152344 L 24.132812 66.152344 C 22.679688 66.152344 21.5 67.328125 21.5 68.78125 L 21.5 89.621094 C 21.5 91.074219 22.679688 92.253906 24.132812 92.253906 L 32.863281 92.253906 C 34.316406 92.253906 35.496094 91.074219 35.496094 89.621094 L 35.496094 68.78125 C 35.496094 67.328125 34.316406 66.152344 32.863281 66.152344 Z M 32.863281 66.152344 "/>
<path style=" stroke:none;fill-rule:nonzero;fill:rgb(0%,0%,0%);fill-opacity:1;" d="M 11.363281 56.144531 L 2.632812 56.144531 C 1.179688 56.144531 0 57.324219 0 58.777344 L 0 89.621094 C 0 91.074219 1.179688 92.253906 2.632812 92.253906 L 11.363281 92.253906 C 12.816406 92.253906 13.992188 91.074219 13.992188 89.621094 L 13.992188 58.777344 C 13.992188 57.324219 12.816406 56.144531 11.363281 56.144531 Z M 11.363281 56.144531 "/>
<path style=" stroke:none;fill-rule:nonzero;fill:rgb(0%,0%,0%);fill-opacity:1;" d="M 54.363281 42.84375 L 45.636719 42.84375 C 44.179688 42.84375 43.003906 44.019531 43.003906 45.472656 L 43.003906 89.621094 C 43.003906 91.074219 44.179688 92.253906 45.636719 92.253906 L 54.363281 92.253906 C 55.820312 92.253906 56.996094 91.074219 56.996094 89.621094 L 56.996094 45.472656 C 56.996094 44.019531 55.820312 42.84375 54.363281 42.84375 Z M 54.363281 42.84375 "/>
<path style=" stroke:none;fill-rule:nonzero;fill:rgb(0%,0%,0%);fill-opacity:1;" d="M 95.023438 53.207031 C 96.792969 53.207031 98.285156 51.765625 98.285156 49.945312 L 98.285156 39.398438 C 98.285156 37.597656 96.824219 36.136719 95.023438 36.136719 C 93.222656 36.136719 91.761719 37.597656 91.761719 39.398438 L 91.761719 42.035156 L 58.625 8.710938 C 57.9375 8.023438 56.984375 7.671875 56.015625 7.761719 C 55.046875 7.847656 54.171875 8.363281 53.621094 9.164062 L 28.65625 45.5 L 6.730469 31.53125 C 5.210938 30.5625 3.195312 31.011719 2.226562 32.53125 C 1.257812 34.050781 1.703125 36.066406 3.222656 37.035156 L 27.808594 52.695312 C 28.351562 53.042969 28.957031 53.207031 29.558594 53.207031 C 30.597656 53.207031 31.617188 52.710938 32.25 51.792969 L 56.769531 16.101562 L 87.179688 46.683594 L 84.480469 46.683594 C 82.675781 46.683594 81.214844 48.144531 81.214844 49.945312 C 81.214844 51.746094 82.675781 53.207031 84.480469 53.207031 C 85.9375 53.207031 93.539062 53.207031 95.015625 53.207031 Z M 95.023438 53.207031 "/>
</g>
</svg>
