<?xml version="1.0" encoding="UTF-8"?>
<svg xmlns="http://www.w3.org/2000/svg" xmlns:xlink="http://www.w3.org/1999/xlink" width="100px" height="100px" viewBox="0 0 100 100" version="1.1">
<g id="surface1">
<path style=" stroke:none;fill-rule:nonzero;fill:rgb(0%,0%,0%);fill-opacity:1;" d="M 37.5 8.332031 L 8.332031 8.332031 L 8.332031 16.667969 L 29.167969 16.667969 L 29.167969 33.332031 L 8.332031 33.332031 L 8.332031 41.667969 L 37.5 41.667969 L 37.5 29.167969 L 58.332031 29.167969 L 58.332031 70.832031 L 37.5 70.832031 L 37.5 58.332031 L 8.332031 58.332031 L 8.332031 66.667969 L 29.167969 66.667969 L 29.167969 83.332031 L 8.332031 83.332031 L 8.332031 91.667969 L 37.5 91.667969 L 37.5 79.167969 L 66.667969 79.167969 L 66.667969 54.167969 L 91.667969 54.167969 L 91.667969 45.832031 L 66.667969 45.832031 L 66.667969 20.832031 L 37.5 20.832031 Z M 37.5 8.332031 "/>
</g>
</svg>
